# Blender v2.76 (sub 0) OBJ File: 'crank.blend'
# www.blender.org
mtllib CrankBlockModel.mtl
o Plane
v 0.049996 -0.000001 0.100000
v -0.049999 -0.000001 0.100000
v 0.049996 0.700001 0.100000
v -0.049999 0.700001 0.100000
v 0.049996 -0.000001 0.050001
v 0.049996 0.700001 0.050001
v -0.049999 -0.000001 0.050001
v -0.049999 0.700001 0.050001
v -0.100000 -0.100000 0.132832
v -0.100000 -0.100000 -0.067168
v 0.100000 -0.100000 -0.067168
v 0.100000 0.100000 -0.067168
v -0.100000 0.100000 -0.067168
v -0.100000 0.100000 0.132832
v 0.100000 0.100000 0.132832
v 0.100000 -0.100000 0.132832
v -0.049999 0.600002 0.050001
v 0.049996 0.600002 0.050001
v 0.049996 0.600002 0.100000
v -0.049999 0.600002 0.100000
v 0.049997 0.650002 0.100000
v -0.000000 0.700000 0.100000
v -0.000002 0.600003 0.100000
v -0.050000 0.650000 0.100000
v 0.049997 0.650002 0.399993
v -0.000000 0.700000 0.399993
v -0.000002 0.600003 0.399993
v -0.050000 0.650000 0.399993
vt 0.593750 -0.000000
vt 0.718750 -0.000000
vt 0.718750 0.437500
vt 0.031250 0.625000
vt 0.281250 0.625000
vt 0.281250 0.750000
vt 0.531250 0.437500
vt 0.531250 -0.000000
vt 0.531250 0.625000
vt 0.281250 0.500000
vt 0.406250 0.437500
vt 0.406250 -0.000000
vt 0.531250 0.750000
vt 0.531250 0.875000
vt 0.531250 1.000000
vt 0.281250 1.000000
vt 0.781250 0.625000
vt 0.781250 0.437500
vt 0.781250 0.500000
vt 0.718750 0.500000
vt 0.781250 -0.000000
vt 0.531250 0.500000
vt 0.406250 0.500000
vt 0.593750 0.437500
vt 0.593750 0.500000
vt 0.375000 0.281250
vt 0.468750 0.281250
vt 0.468750 0.328125
vt 0.468750 0.093750
vt 0.375000 0.093750
vt 0.250000 0.281250
vt 0.562500 0.093750
vt 0.562500 0.281250
vt 0.250000 0.093750
vt 0.156250 0.281250
vt 0.593750 0.562500
vt 0.031250 0.750000
vt 0.281250 0.875000
vt 0.781250 0.750000
vt 0.375000 0.328125
vt 0.156250 0.093750
vt 0.718750 0.562500
vn 0.000000 -0.000000 1.000000
vn 1.000000 0.000000 0.000000
vn -1.000000 -0.000000 0.000000
vn 0.000000 -0.000000 -1.000000
vn 0.000000 -1.000000 0.000000
vn 0.000000 1.000000 -0.000000
vn -0.707100 0.707100 0.000000
vn 0.707100 0.707100 0.000000
vn -0.707100 -0.707100 0.000000
vn 0.707100 -0.707100 0.000000
usemtl None
s off
f 2/1/1 1/2/1 19/3/1
f 11/4/2 12/5/2 15/6/2
f 17/7/3 7/8/3 2/1/3
f 13/9/4 12/5/4 11/10/4
f 18/11/4 5/12/4 7/8/4
f 15/6/1 14/13/1 9/14/1
f 9/14/5 10/15/5 11/16/5
f 12/5/6 13/9/6 14/13/6
f 14/13/3 13/9/3 10/17/3
f 18/18/2 6/19/2 3/20/2
f 5/21/2 18/18/2 19/3/2
f 8/22/4 6/23/4 18/11/4
f 8/22/3 17/7/3 20/24/3
f 4/25/1 20/24/1 19/3/1
f 26/26/1 28/27/1 27/28/1
f 24/29/7 28/27/7 26/26/7
f 22/30/8 26/26/8 25/31/8
f 23/32/9 27/33/9 28/27/9
f 21/34/10 25/31/10 27/35/10
f 8/36/6 4/25/6 3/20/6
f 20/24/1 2/1/1 19/3/1
f 16/37/2 11/4/2 15/6/2
f 20/24/3 17/7/3 2/1/3
f 10/22/4 13/9/4 11/10/4
f 17/7/4 18/11/4 7/8/4
f 16/38/1 15/6/1 9/14/1
f 16/38/5 9/14/5 11/16/5
f 15/6/6 12/5/6 14/13/6
f 9/39/3 14/13/3 10/17/3
f 19/3/2 18/18/2 3/20/2
f 1/2/2 5/21/2 19/3/2
f 17/7/4 8/22/4 18/11/4
f 4/25/3 8/22/3 20/24/3
f 3/20/1 4/25/1 19/3/1
f 25/40/1 26/26/1 27/28/1
f 22/30/7 24/29/7 26/26/7
f 21/34/8 22/30/8 25/31/8
f 24/29/9 23/32/9 28/27/9
f 23/41/10 21/34/10 27/35/10
f 6/42/6 8/36/6 3/20/6
