# Blender v2.74 (sub 0) OBJ File: 'rotor.blend'
# www.blender.org
mtllib RotorBlockModel.mtl
o Plane
v -0.462000 -0.046200 0.100000
v 0.462000 -0.046200 0.100000
v -0.462000 0.046200 0.100000
v 0.462000 0.046200 0.100000
v 0.000000 -0.046200 0.100000
v 0.000000 0.046200 0.100000
v -0.462000 -0.080850 0.100000
v 0.462000 -0.080850 0.100000
v -0.462000 0.080850 0.100000
v 0.462000 0.080850 0.100000
v -0.885500 -0.080850 0.100000
v 0.885500 -0.080850 0.100000
v -0.885500 0.080850 0.100000
v 0.885500 0.080850 0.100000
v -0.885500 -0.105105 0.100000
v 0.885500 -0.105105 0.100000
v -0.885500 0.105105 0.100000
v 0.885500 0.105105 0.100000
v -1.416800 -0.105105 0.100000
v 1.416800 -0.105105 0.100000
v -1.416800 0.105105 0.100000
v 1.416800 0.105105 0.100000
v -0.462000 -0.046200 0.043508
v 0.462000 -0.046200 0.043508
v -0.462000 0.046200 0.043508
v 0.462000 0.046200 0.043508
v 0.000000 -0.046200 0.043508
v 0.000000 0.046200 0.043508
v -0.462000 -0.080850 0.043508
v 0.462000 -0.080850 0.043508
v -0.462000 0.080850 0.043508
v 0.462000 0.080850 0.043508
v -0.885500 -0.080850 0.043508
v 0.885500 -0.080850 0.043508
v -0.885500 0.080850 0.043508
v 0.885500 0.080850 0.043508
v -0.885500 -0.105105 0.043508
v 0.885500 -0.105105 0.043508
v -0.885500 0.105105 0.043508
v 0.885500 0.105105 0.043508
v -1.416800 -0.105105 0.043508
v 1.416800 -0.105105 0.043508
v -1.416800 0.105105 0.043508
v 1.416800 0.105105 0.043508
v -0.100000 -0.100000 0.132832
v 0.100000 -0.100000 0.132832
v -0.100000 0.100000 0.132832
v 0.100000 0.100000 0.132832
v -0.100000 -0.100000 -0.067168
v 0.100000 -0.100000 -0.067168
v -0.100000 0.100000 -0.067168
v 0.100000 0.100000 -0.067168
vt 0.843750 0.335938
vt 0.914062 0.335938
vt 0.914062 0.500000
vt 0.843750 0.500000
vt 0.914062 0.664062
vt 0.820312 0.335938
vt 0.843750 0.664062
vt 0.937500 0.664062
vt 0.820312 0.187500
vt 0.937500 0.187500
vt 0.937500 0.812500
vt 0.820312 0.812500
vt 0.804688 0.187500
vt 0.960938 0.812500
vt 0.804688 0.000000
vt 0.960938 0.000000
vt 0.960938 1.000000
vt 0.804688 1.000000
vt 0.937500 0.335938
vt 0.820312 0.664062
vt 0.960938 0.187500
vt 0.804688 0.812500
vt 0.500000 0.875000
vt 0.500000 1.000000
vt 0.250000 1.000000
vt 0.250000 0.625000
vt 0.500000 0.625000
vt 0.500000 0.750000
vt -0.000000 0.625000
vt 0.250000 0.750000
vt 0.750000 0.625000
vt 0.250000 0.500000
vt 0.250000 0.875000
vt -0.000000 0.750000
vt 0.750000 0.750000
vt 0.500000 0.500000
vn 0.000000 0.000000 1.000000
vn 1.000000 0.000000 0.000000
vn 0.000000 -0.000000 -1.000000
vn 0.000000 1.000000 -0.000000
vn 0.000000 -1.000000 0.000000
vn -1.000000 0.000000 0.000000
usemtl None
s off
f 2/1/1 4/2/1 6/3/1
f 5/4/1 6/3/1 3/5/1
f 4/2/2 2/1/2 8/6/2
f 1/7/2 3/5/2 9/8/2
f 8/6/1 12/9/1 14/10/1
f 9/8/1 13/11/1 11/12/1
f 14/10/2 12/9/2 16/13/2
f 11/12/2 13/11/2 17/14/2
f 16/13/1 20/15/1 22/16/1
f 17/14/1 21/17/1 19/18/1
f 28/3/3 26/2/3 24/1/3
f 25/5/3 28/3/3 27/4/3
f 26/2/2 32/19/2 30/6/2
f 23/7/2 29/20/2 31/8/2
f 36/10/3 34/9/3 30/6/3
f 33/12/3 35/11/3 31/8/3
f 36/10/2 40/21/2 38/13/2
f 33/12/2 37/22/2 39/14/2
f 44/16/3 42/15/3 38/13/3
f 41/18/3 43/17/3 39/14/3
f 39/14/4 43/17/4 21/17/4
f 38/13/5 42/15/5 20/15/5
f 33/12/5 29/20/5 7/20/5
f 20/15/2 42/15/2 44/16/2
f 23/7/5 27/4/5 5/4/5
f 36/10/4 32/19/4 10/19/4
f 13/11/2 35/11/2 39/14/2
f 7/20/2 29/20/2 23/7/2
f 34/9/6 38/13/6 16/13/6
f 32/19/6 26/2/6 4/2/6
f 41/18/5 37/22/5 15/22/5
f 31/8/4 35/11/4 13/11/4
f 44/16/4 40/21/4 18/21/4
f 26/2/4 28/3/4 6/3/4
f 30/6/5 34/9/5 12/9/5
f 43/17/6 41/18/6 19/18/6
f 28/3/4 25/5/4 3/5/4
f 27/4/5 24/1/5 2/1/5
f 3/5/2 25/5/2 31/8/2
f 15/22/2 37/22/2 33/12/2
f 24/1/6 30/6/6 8/6/6
f 40/21/6 36/10/6 14/10/6
f 47/23/1 45/24/1 46/25/1
f 50/26/3 49/27/3 51/28/3
f 46/29/2 50/26/2 52/30/2
f 52/30/4 51/28/4 47/23/4
f 51/28/6 49/27/6 45/31/6
f 49/27/5 50/26/5 46/32/5
f 5/4/1 2/1/1 6/3/1
f 1/7/1 5/4/1 3/5/1
f 10/19/6 4/2/6 8/6/6
f 7/20/6 1/7/6 9/8/6
f 10/19/1 8/6/1 14/10/1
f 7/20/1 9/8/1 11/12/1
f 18/21/6 14/10/6 16/13/6
f 15/22/6 11/12/6 17/14/6
f 18/21/1 16/13/1 22/16/1
f 15/22/1 17/14/1 19/18/1
f 27/4/3 28/3/3 24/1/3
f 23/7/3 25/5/3 27/4/3
f 24/1/6 26/2/6 30/6/6
f 25/5/6 23/7/6 31/8/6
f 32/19/3 36/10/3 30/6/3
f 29/20/3 33/12/3 31/8/3
f 34/9/6 36/10/6 38/13/6
f 35/11/6 33/12/6 39/14/6
f 40/21/3 44/16/3 38/13/3
f 37/22/3 41/18/3 39/14/3
f 17/14/4 39/14/4 21/17/4
f 16/13/5 38/13/5 20/15/5
f 11/12/5 33/12/5 7/20/5
f 22/16/2 20/15/2 44/16/2
f 1/7/5 23/7/5 5/4/5
f 14/10/4 36/10/4 10/19/4
f 17/14/2 13/11/2 39/14/2
f 1/7/2 7/20/2 23/7/2
f 12/9/6 34/9/6 16/13/6
f 10/19/6 32/19/6 4/2/6
f 19/18/5 41/18/5 15/22/5
f 9/8/4 31/8/4 13/11/4
f 22/16/4 44/16/4 18/21/4
f 4/2/4 26/2/4 6/3/4
f 8/6/5 30/6/5 12/9/5
f 21/17/6 43/17/6 19/18/6
f 6/3/4 28/3/4 3/5/4
f 5/4/5 27/4/5 2/1/5
f 9/8/2 3/5/2 31/8/2
f 11/12/2 15/22/2 33/12/2
f 2/1/6 24/1/6 8/6/6
f 18/21/6 40/21/6 14/10/6
f 48/33/1 47/23/1 46/25/1
f 52/30/3 50/26/3 51/28/3
f 48/34/2 46/29/2 52/30/2
f 48/33/4 52/30/4 47/23/4
f 47/35/6 51/28/6 45/31/6
f 45/36/5 49/27/5 46/32/5
